# xmcd CD database file
#
# Track frame offsets:
#	150
#	14314
#	32199
#	54874
#	70306
#	92638
#	112378
#	138709
#	149086
#	169406
#	187908
#	205997
#
# Disc length: 3160 seconds
#
# Revision: 5
# Processed by: cddbd v1.5.2PL0 Copyright (c) Steve Scherf et al.
# Submitted via: CDex 1.51
#
DISCID=b90c560c
DTITLE=Various Artist - Crucial Texas Blues
DYEAR=2004
DGENRE=Blues
TTITLE0=Clarence "Gatemouth" Brown - She Walks Right In
TTITLE1=Johnny Copeland and Albert Collins - Lion's Den
TTITLE2=Long John Hunter - Both Ends Of The Road
TTITLE3=W.C. Clark - Midnight Hour Blues
TTITLE4=Katie Webster and Lonnie Brooks - Those Lonely, Lonely Nights
TTITLE5=Phillip Walker and Long John Hunter - Street Walkin' Woman
TTITLE6=Johnny Winter i Tin Pan Alley
TTITLE7=Floyd Dixon - 450 Pound Woman
TTITLE8=C.J. Chenier - Richest Man
TTITLE9=Delbert McClinton - Standing On Shaky Ground
TTITLE10=Marcia Ball - I'm Coming Down With The Blues
TTITLE11=Albert Collins - Too Many Dirty Dishes
EXTD=YEAR: 2004
EXTT0=
EXTT1=
EXTT2=
EXTT3=
EXTT4=
EXTT5=
EXTT6=
EXTT7=
EXTT8=
EXTT9=
EXTT10=
EXTT11=
PLAYORDER=
